<svg width="36" height="36" viewBox="0 0 36 36" fill="none" xmlns="http://www.w3.org/2000/svg">
<path d="M0 9.98435C0 4.47015 4.47014 0 9.98434 0H25.9593C31.4735 0 35.9436 4.47014 35.9436 9.98434V25.9593C35.9436 31.4735 31.4735 35.9436 25.9593 35.9436H9.98435C4.47015 35.9436 0 31.4735 0 25.9593V9.98435Z" fill="#E8EEFF"/>
<path d="M13.6691 22.9717V14.0936H19.1325V15.5793H15.4423V17.8916H18.5933V19.3773H15.4423V22.9717H13.6691ZM22.1992 23.1394C21.7839 23.1394 21.4564 23.0555 21.2168 22.8878C20.9771 22.7121 20.8014 22.4725 20.6896 22.1689C20.5857 21.8574 20.5338 21.498 20.5338 21.0906V13.4107H22.2951V21.1625C22.2951 21.3622 22.331 21.502 22.4029 21.5819C22.4828 21.6617 22.5626 21.7017 22.6425 21.7017C22.6825 21.7017 22.7184 21.7017 22.7504 21.7017C22.7823 21.6937 22.8262 21.6857 22.8821 21.6777L23.0978 22.9837C22.994 23.0236 22.8662 23.0595 22.7144 23.0915C22.5706 23.1234 22.3989 23.1394 22.1992 23.1394Z" fill="#5B6EF5"/>
</svg>
