<svg width="36" height="36" viewBox="0 0 36 36" fill="none" xmlns="http://www.w3.org/2000/svg">
<path d="M0 9.98435C0 4.47015 4.47014 0 9.98434 0H25.9593C31.4735 0 35.9436 4.47014 35.9436 9.98434V25.9593C35.9436 31.4735 31.4735 35.9436 25.9593 35.9436H9.98435C4.47015 35.9436 0 31.4735 0 25.9593V9.98435Z" fill="#101828"/>
<g clip-path="url(#clip0_92_455)">
<path d="M17.9726 7.9873C12.4563 7.9873 7.98828 12.4553 7.98828 17.9716C7.98828 22.3897 10.8463 26.1214 14.8151 27.4443C15.3143 27.5317 15.5015 27.2321 15.5015 26.97C15.5015 26.7329 15.489 25.9466 15.489 25.1105C12.9805 25.5722 12.3315 24.4989 12.1318 23.9373C12.0195 23.6502 11.5327 22.7641 11.1084 22.527C10.7589 22.3398 10.2597 21.878 11.0959 21.8655C11.8822 21.8531 12.4438 22.5894 12.631 22.8889C13.5296 24.3991 14.9648 23.9747 15.5389 23.7126C15.6263 23.0637 15.8884 22.6268 16.1754 22.3772C13.9539 22.1276 11.6326 21.2665 11.6326 17.4475C11.6326 16.3617 12.0195 15.4631 12.656 14.7642C12.5561 14.5146 12.2067 13.4912 12.7558 12.1183C12.7558 12.1183 13.592 11.8562 15.5015 13.1417C16.3002 12.9171 17.1489 12.8048 17.9976 12.8048C18.8463 12.8048 19.6949 12.9171 20.4937 13.1417C22.4032 11.8438 23.2394 12.1183 23.2394 12.1183C23.7885 13.4912 23.4391 14.5146 23.3392 14.7642C23.9757 15.4631 24.3626 16.3492 24.3626 17.4475C24.3626 21.279 22.0288 22.1276 19.8072 22.3772C20.1692 22.6893 20.4812 23.2883 20.4812 24.2243C20.4812 25.5597 20.4687 26.6331 20.4687 26.97C20.4687 27.2321 20.6559 27.5441 21.1551 27.4443C23.1372 26.7751 24.8595 25.5012 26.0796 23.802C27.2998 22.1027 27.9564 20.0636 27.957 17.9716C27.957 12.4553 23.489 7.9873 17.9726 7.9873Z" fill="white"/>
</g>
<defs>
<clipPath id="clip0_92_455">
<rect width="19.9687" height="19.9687" fill="white" transform="translate(7.98828 7.9873)"/>
</clipPath>
</defs>
</svg>
