<svg width="27" height="27" viewBox="0 0 27 27" fill="none" xmlns="http://www.w3.org/2000/svg">
<path d="M16.3727 22.9194V14.1881C16.3727 13.8986 16.2577 13.621 16.0531 13.4163C15.8484 13.2117 15.5708 13.0967 15.2813 13.0967H10.9156C10.6262 13.0967 10.3486 13.2117 10.1439 13.4163C9.93921 13.621 9.82422 13.8986 9.82422 14.1881V22.9194" stroke="#BBBBBB" stroke-width="1.96455" stroke-linecap="round" stroke-linejoin="round"/>
<path d="M3.27539 10.9134C3.27531 10.5959 3.34451 10.2821 3.47816 9.99411C3.61181 9.70608 3.80669 9.45067 4.04921 9.24571L11.6891 2.69829C12.0831 2.36531 12.5823 2.18262 13.0982 2.18262C13.614 2.18262 14.1132 2.36531 14.5072 2.69829L22.1471 9.24571C22.3896 9.45067 22.5845 9.70608 22.7181 9.99411C22.8518 10.2821 22.921 10.5959 22.9209 10.9134V20.7362C22.9209 21.3151 22.6909 21.8703 22.2816 22.2797C21.8722 22.689 21.317 22.919 20.7381 22.919H5.45823C4.8793 22.919 4.32409 22.689 3.91473 22.2797C3.50537 21.8703 3.27539 21.3151 3.27539 20.7362V10.9134Z" stroke="#BBBBBB" stroke-width="1.96455" stroke-linecap="round" stroke-linejoin="round"/>
</svg>
