<svg width="36" height="36" viewBox="0 0 36 36" fill="none" xmlns="http://www.w3.org/2000/svg">
<path d="M0 9.98435C0 4.47015 4.47014 0 9.98434 0H25.9593C31.4735 0 35.9436 4.47014 35.9436 9.98434V25.9593C35.9436 31.4735 31.4735 35.9436 25.9593 35.9436H9.98435C4.47015 35.9436 0 31.4735 0 25.9593V9.98435Z" fill="#FFE8E8"/>
<path d="M14.5758 22.9717V14.0936H16.385L18.961 18.8262L19.8596 20.7432H19.9195C19.8715 20.2799 19.8196 19.7727 19.7637 19.2216C19.7078 18.6704 19.6798 18.1433 19.6798 17.64V14.0936H21.3572V22.9717H19.548L16.996 18.2271L16.0975 16.3221H16.0376C16.0775 16.8014 16.1254 17.3086 16.1813 17.8437C16.2372 18.3789 16.2652 18.9021 16.2652 19.4133V22.9717H14.5758Z" fill="#E53E3E"/>
</svg>
