<svg width="36" height="36" viewBox="0 0 36 36" fill="none" xmlns="http://www.w3.org/2000/svg">
<path d="M0 9.98435C0 4.47015 4.47014 0 9.98434 0H25.9593C31.4735 0 35.9436 4.47014 35.9436 9.98434V25.9593C35.9436 31.4735 31.4735 35.9436 25.9593 35.9436H9.98435C4.47015 35.9436 0 31.4735 0 25.9593V9.98435Z" fill="#FFF0E5"/>
<path d="M12.2007 22.9717V14.0936H15.1121C15.7671 14.0936 16.3541 14.1815 16.8733 14.3572C17.4005 14.5329 17.8159 14.8245 18.1194 15.2318C18.4309 15.6312 18.5866 16.1823 18.5866 16.8852C18.5866 17.5562 18.4309 18.1113 18.1194 18.5506C17.8159 18.9819 17.4045 19.3014 16.8853 19.5091C16.3741 19.7168 15.799 19.8206 15.16 19.8206H13.9739V22.9717H12.2007ZM13.9739 18.4188H15.0402C15.6473 18.4188 16.0985 18.291 16.3941 18.0354C16.6976 17.7798 16.8494 17.3964 16.8494 16.8852C16.8494 16.374 16.6896 16.0186 16.3701 15.8189C16.0586 15.6112 15.5953 15.5074 14.9803 15.5074H13.9739V18.4188ZM21.7663 23.1394C21.3191 23.1394 20.8638 23.0516 20.4005 22.8758C19.9452 22.7001 19.5498 22.4765 19.2144 22.2049L20.0171 21.0906C20.3126 21.3143 20.6042 21.494 20.8917 21.6298C21.1873 21.7576 21.4948 21.8215 21.8143 21.8215C22.1497 21.8215 22.3934 21.7576 22.5451 21.6298C22.7049 21.494 22.7848 21.3223 22.7848 21.1146C22.7848 20.9469 22.7169 20.8071 22.5811 20.6952C22.4453 20.5754 22.2696 20.4716 22.0539 20.3837C21.8382 20.2879 21.6146 20.196 21.383 20.1082C21.1034 19.9963 20.8238 19.8606 20.5443 19.7008C20.2727 19.5411 20.045 19.3374 19.8613 19.0898C19.6776 18.8342 19.5858 18.5187 19.5858 18.1433C19.5858 17.7439 19.6896 17.3924 19.8973 17.0889C20.105 16.7774 20.3925 16.5338 20.7599 16.358C21.1353 16.1823 21.5786 16.0945 22.0898 16.0945C22.5771 16.0945 23.0084 16.1783 23.3838 16.3461C23.7672 16.5138 24.0947 16.7055 24.3663 16.9212L23.5755 17.9875C23.3359 17.8118 23.0963 17.672 22.8566 17.5682C22.625 17.4643 22.3854 17.4124 22.1378 17.4124C21.8263 17.4124 21.5986 17.4723 21.4548 17.5921C21.3111 17.7119 21.2392 17.8677 21.2392 18.0594C21.2392 18.2191 21.2991 18.3549 21.4189 18.4667C21.5387 18.5706 21.7024 18.6624 21.9101 18.7423C22.1178 18.8222 22.3375 18.9061 22.5691 18.9939C22.7927 19.0738 23.0124 19.1696 23.2281 19.2815C23.4517 19.3853 23.6554 19.5131 23.8391 19.6649C24.0228 19.8166 24.1666 20.0043 24.2704 20.228C24.3822 20.4436 24.4382 20.7072 24.4382 21.0187C24.4382 21.4101 24.3343 21.7696 24.1266 22.0971C23.927 22.4166 23.6274 22.6721 23.2281 22.8638C22.8367 23.0476 22.3494 23.1394 21.7663 23.1394Z" fill="#FF6B00"/>
</svg>
