<svg width="204" height="204" viewBox="0 0 204 204" fill="none" xmlns="http://www.w3.org/2000/svg">
<path d="M101.865 183.357C143.657 183.357 177.537 149.478 177.537 107.685C177.537 65.893 143.657 32.0137 101.865 32.0137C60.0727 32.0137 26.1934 65.893 26.1934 107.685C26.1934 149.478 60.0727 183.357 101.865 183.357Z" fill="#7FFFD4" fill-opacity="0.18"/>
<path d="M101.865 177.536C143.657 177.536 177.537 143.656 177.537 101.864C177.537 60.0717 143.657 26.1924 101.865 26.1924C60.0727 26.1924 26.1934 60.0717 26.1934 101.864C26.1934 143.656 60.0727 177.536 101.865 177.536Z" fill="#5ECFB0"/>
<path d="M101.865 170.262C142.05 170.262 174.626 137.685 174.626 97.5005C174.626 57.3156 142.05 24.7393 101.865 24.7393C61.6798 24.7393 29.1035 57.3156 29.1035 97.5005C29.1035 137.685 61.6798 170.262 101.865 170.262Z" fill="#7FFFD4"/>
<path d="M101.865 158.618C135.621 158.618 162.985 131.254 162.985 97.4983C162.985 63.743 135.621 36.3789 101.865 36.3789C68.1102 36.3789 40.7461 63.743 40.7461 97.4983C40.7461 131.254 68.1102 158.618 101.865 158.618Z" stroke="white" stroke-opacity="0.35" stroke-width="2.91045"/>
<path opacity="0.95" d="M101.865 49.4775L110.888 79.7462H143.194L116.563 97.791L125.586 128.06L101.865 110.015L78.1453 128.06L87.1677 97.791L60.5371 79.7462H92.8431L101.865 49.4775Z" fill="white"/>
<path opacity="0.7" d="M43.6571 55.2988L45.6944 61.9929L52.3885 64.0302L45.6944 66.0675L43.6571 72.7615L41.6198 66.0675L34.9258 64.0302L41.6198 61.9929L43.6571 55.2988Z" fill="white"/>
<path opacity="0.65" d="M157.163 43.6572L158.909 49.4781L164.439 51.2244L158.909 52.9707L157.163 58.7916L155.417 52.9707L149.887 51.2244L155.417 49.4781L157.163 43.6572Z" fill="white"/>
<path opacity="0.55" d="M171.715 90.2236L173.171 94.8803L177.536 96.0445L173.171 97.2087L171.715 101.865L170.26 97.2087L165.895 96.0445L170.26 94.8803L171.715 90.2236Z" fill="white"/>
<path opacity="0.5" d="M55.2982 90.9499C57.3075 90.9499 58.9363 89.3211 58.9363 87.3119C58.9363 85.3026 57.3075 83.6738 55.2982 83.6738C53.289 83.6738 51.6602 85.3026 51.6602 87.3119C51.6602 89.3211 53.289 90.9499 55.2982 90.9499Z" fill="white"/>
<path opacity="0.45" d="M151.342 75.6705C152.949 75.6705 154.253 74.3675 154.253 72.7601C154.253 71.1527 152.949 69.8496 151.342 69.8496C149.735 69.8496 148.432 71.1527 148.432 72.7601C148.432 74.3675 149.735 75.6705 151.342 75.6705Z" fill="white"/>
<path opacity="0.4" d="M162.985 122.239C164.592 122.239 165.895 120.936 165.895 119.328C165.895 117.721 164.592 116.418 162.985 116.418C161.377 116.418 160.074 117.721 160.074 119.328C160.074 120.936 161.377 122.239 162.985 122.239Z" fill="white"/>
<path opacity="0.4" d="M40.7444 119.035C42.1911 119.035 43.3638 117.862 43.3638 116.415C43.3638 114.969 42.1911 113.796 40.7444 113.796C39.2977 113.796 38.125 114.969 38.125 116.415C38.125 117.862 39.2977 119.035 40.7444 119.035Z" fill="white"/>
</svg>
