<svg width="16" height="16" viewBox="0 0 16 16" fill="none" xmlns="http://www.w3.org/2000/svg">
<path d="M7.68815 1.53067C7.71738 1.47162 7.76253 1.42191 7.81851 1.38716C7.87449 1.3524 7.93907 1.33398 8.00496 1.33398C8.07085 1.33398 8.13543 1.3524 8.19141 1.38716C8.24739 1.42191 8.29255 1.47162 8.32178 1.53067L9.86249 4.65146C9.96399 4.85687 10.1138 5.03458 10.2991 5.16934C10.4844 5.3041 10.6996 5.39188 10.9263 5.42515L14.3719 5.92939C14.4372 5.93885 14.4986 5.96639 14.549 6.00889C14.5995 6.0514 14.637 6.10717 14.6574 6.16991C14.6778 6.23264 14.6803 6.29983 14.6645 6.36388C14.6487 6.42793 14.6153 6.48628 14.568 6.53234L12.0762 8.9588C11.9119 9.11894 11.7889 9.31662 11.7179 9.53482C11.6469 9.75302 11.63 9.98521 11.6687 10.2114L12.2569 13.6397C12.2685 13.7049 12.2614 13.7721 12.2366 13.8335C12.2118 13.895 12.1702 13.9482 12.1166 13.9871C12.063 14.0261 11.9995 14.0492 11.9334 14.0538C11.8673 14.0584 11.8012 14.0443 11.7427 14.0132L8.6626 12.3937C8.45965 12.2872 8.23385 12.2315 8.00463 12.2315C7.7754 12.2315 7.5496 12.2872 7.34665 12.3937L4.26722 14.0132C4.20875 14.0441 4.14276 14.058 4.07676 14.0533C4.01077 14.0487 3.94741 14.0255 3.89391 13.9866C3.8404 13.9477 3.79889 13.8946 3.77409 13.8332C3.7493 13.7719 3.74221 13.7048 3.75365 13.6397L4.34125 10.2121C4.38007 9.98577 4.36325 9.75344 4.29226 9.5351C4.22126 9.31677 4.09821 9.11898 3.93373 8.9588L1.4419 6.533C1.39427 6.487 1.36053 6.42855 1.3445 6.36431C1.32847 6.30006 1.33081 6.23261 1.35124 6.16963C1.37168 6.10665 1.4094 6.05067 1.46009 6.00808C1.51079 5.96549 1.57243 5.93799 1.63799 5.92872L5.08293 5.42515C5.30988 5.39214 5.5254 5.30447 5.71095 5.16969C5.8965 5.03492 6.04652 4.85707 6.1481 4.65146L7.68815 1.53067Z" fill="#F59E0B"/>
</svg>
