<svg width="22" height="21" viewBox="0 0 22 21" fill="none" xmlns="http://www.w3.org/2000/svg">
<g clip-path="url(#clip0_92_807)">
<path d="M16.0311 5.73012C15.864 7.83388 14.1553 9.55008 12.2794 9.55008C10.4035 9.55008 8.69179 7.83428 8.52765 5.73012C8.35712 3.5416 10.0198 1.91016 12.2794 1.91016C14.539 1.91016 16.2017 3.58139 16.0311 5.73012Z" fill="#DFE1E1" stroke="#666666" stroke-width="1.09142" stroke-linecap="round" stroke-linejoin="round"/>
<path d="M12.2779 12.0967C8.56878 12.0967 4.80424 14.0067 4.10761 17.6118C4.02235 18.0463 4.2871 18.4633 4.77483 18.4633H19.7814C20.2691 18.4633 20.5326 18.0463 20.4486 17.6118C19.7516 14.0067 15.987 12.0967 12.2779 12.0967Z" fill="#EAEAEA" stroke="#666666" stroke-width="1.09142" stroke-miterlimit="10"/>
<path d="M3.75076 7.00293V11.4596M6.13823 9.23124H1.36328" stroke="#666666" stroke-width="1.09142" stroke-linecap="round" stroke-linejoin="round"/>
</g>
<defs>
<clipPath id="clip0_92_807">
<rect width="21.8284" height="20.3731" fill="white"/>
</clipPath>
</defs>
</svg>
