<svg width="360" height="272" viewBox="0 0 360 272" fill="none" xmlns="http://www.w3.org/2000/svg">
<g opacity="0.85">
<path d="M32.7287 22.3789C31.925 20.9869 32.4019 19.2069 33.794 18.4032L35.0542 17.6756C36.4463 16.8719 38.2263 17.3488 39.03 18.7409L43.3956 26.3024C44.1993 27.6945 43.7224 29.4745 42.3303 30.2782L41.0701 31.0058C39.678 31.8095 37.898 31.3325 37.0943 29.9405L32.7287 22.3789Z" fill="#FF6B6B"/>
</g>
<g opacity="0.85">
<path d="M136.667 49.8132C137.083 48.2606 138.679 47.3392 140.231 47.7552V47.7552C141.784 48.1713 142.705 49.7672 142.289 51.3198L140.783 56.9423C140.367 58.495 138.771 59.4164 137.218 59.0003V59.0003C135.665 58.5843 134.744 56.9884 135.16 55.4358L136.667 49.8132Z" fill="#FFD93D"/>
</g>
<g opacity="0.85">
<path d="M216.135 2.058C217.272 0.921397 219.115 0.921397 220.251 2.058L222.309 4.11599C223.446 5.25259 223.446 7.09539 222.309 8.23199L220.251 10.29C219.115 11.4266 217.272 11.4266 216.135 10.29L214.077 8.23199C212.941 7.09539 212.941 5.25259 214.077 4.11599L216.135 2.058Z" fill="#6BCB77"/>
</g>
<g opacity="0.85">
<path d="M290.794 36.6744C290.244 35.1639 291.023 33.4938 292.534 32.944L293.901 32.4463C295.412 31.8965 297.082 32.6753 297.632 34.1858L300.12 41.0231C300.67 42.5336 299.891 44.2037 298.381 44.7535L297.013 45.2512C295.503 45.801 293.833 45.0222 293.283 43.5117L290.794 36.6744Z" fill="#4D96FF"/>
</g>
<g opacity="0.85">
<path d="M332.297 79.8184C333.1 78.4263 334.88 77.9494 336.272 78.7531V78.7531C337.665 79.5568 338.141 81.3368 337.338 82.7288L335.155 86.5096C334.351 87.9016 332.571 88.3786 331.179 87.5749V87.5749C329.787 86.7712 329.31 84.9912 330.114 83.5992L332.297 79.8184Z" fill="#FF6B6B"/>
</g>
<g opacity="0.85">
<path d="M11.0273 126.73C11.0273 125.122 12.3304 123.819 13.9378 123.819H15.393C17.0004 123.819 18.3035 125.122 18.3035 126.73V128.185C18.3035 129.792 17.0004 131.095 15.393 131.095H13.9378C12.3304 131.095 11.0273 129.792 11.0273 128.185V126.73Z" fill="#FFD93D"/>
</g>
<g opacity="0.85">
<path d="M345.208 114.383C344.072 113.247 344.072 111.404 345.208 110.267V110.267C346.345 109.131 348.188 109.131 349.324 110.267L353.44 114.383C354.577 115.52 354.577 117.363 353.44 118.499V118.499C352.304 119.636 350.461 119.636 349.324 118.499L345.208 114.383Z" fill="#6BCB77"/>
</g>
<g opacity="0.85">
<path d="M50.9019 186.393C51.3142 185.26 52.5668 184.676 53.6996 185.088V185.088C54.8325 185.501 55.4166 186.753 55.0043 187.886L53.5111 191.989C53.0988 193.121 51.8462 193.705 50.7133 193.293V193.293C49.5805 192.881 48.9964 191.628 49.4087 190.495L50.9019 186.393Z" fill="#4D96FF"/>
</g>
<g opacity="0.85">
<path d="M315.152 203.936C314.736 202.384 315.657 200.788 317.21 200.372L318.615 199.995C320.168 199.579 321.764 200.5 322.18 202.053L322.557 203.459C322.973 205.011 322.051 206.607 320.499 207.023L319.093 207.4C317.54 207.816 315.944 206.895 315.528 205.342L315.152 203.936Z" fill="#FF922B"/>
</g>
<g opacity="0.85">
<path d="M5.84236 247.706C6.76432 246.39 8.57912 246.07 9.89582 246.992V246.992C11.2125 247.914 11.5325 249.728 10.6106 251.045L6.43715 257.005C5.51518 258.322 3.70038 258.642 2.38368 257.72V257.72C1.06698 256.798 0.746982 254.983 1.66895 253.667L5.84236 247.706Z" fill="#6BCB77"/>
</g>
<g opacity="0.85">
<path d="M354.752 262.915C354.961 261.728 356.093 260.935 357.281 261.145V261.145C358.468 261.354 359.261 262.486 359.051 263.673L358.04 269.406C357.831 270.593 356.699 271.386 355.512 271.176V271.176C354.324 270.967 353.532 269.835 353.741 268.648L354.752 262.915Z" fill="#FF6B6B"/>
</g>
</svg>
