<svg width="30" height="30" viewBox="0 0 30 30" fill="none" xmlns="http://www.w3.org/2000/svg">
<path d="M14.5525 15.7662C15.2223 15.7662 15.7652 15.2233 15.7652 14.5535C15.7652 13.8838 15.2223 13.3408 14.5525 13.3408C13.8828 13.3408 13.3398 13.8838 13.3398 14.5535C13.3398 15.2233 13.8828 15.7662 14.5525 15.7662Z" stroke="#666666" stroke-width="2.42537" stroke-linecap="round" stroke-linejoin="round"/>
<path d="M23.0408 15.7662C23.7106 15.7662 24.2535 15.2233 24.2535 14.5535C24.2535 13.8838 23.7106 13.3408 23.0408 13.3408C22.3711 13.3408 21.8281 13.8838 21.8281 14.5535C21.8281 15.2233 22.3711 15.7662 23.0408 15.7662Z" stroke="#666666" stroke-width="2.42537" stroke-linecap="round" stroke-linejoin="round"/>
<path d="M6.06425 15.7662C6.734 15.7662 7.27694 15.2233 7.27694 14.5535C7.27694 13.8838 6.734 13.3408 6.06425 13.3408C5.3945 13.3408 4.85156 13.8838 4.85156 14.5535C4.85156 15.2233 5.3945 15.7662 6.06425 15.7662Z" stroke="#666666" stroke-width="2.42537" stroke-linecap="round" stroke-linejoin="round"/>
</svg>
