<svg width="22" height="22" viewBox="0 0 22 22" fill="none" xmlns="http://www.w3.org/2000/svg">
<path d="M1.16127 6.01371C2.06974 4.20582 3.46288 2.68604 5.18511 1.6241C6.90734 0.56216 8.89087 -0.00013805 10.9142 2.54228e-08C13.8556 2.54228e-08 16.3265 1.0816 18.2158 2.84314L15.0867 5.97333C13.9549 4.89174 12.5164 4.34057 10.9142 4.34057C8.07104 4.34057 5.66446 6.26147 4.8077 8.84049C4.58941 9.49534 4.46499 10.1938 4.46499 10.9142C4.46499 11.6345 4.58941 12.333 4.8077 12.9879C5.66555 15.568 8.07104 17.4878 10.9142 17.4878C12.3821 17.4878 13.6318 17.1003 14.6097 16.4455C15.1766 16.0722 15.662 15.5879 16.0364 15.0217C16.4109 14.4556 16.6666 13.8194 16.7882 13.1516H10.9142V8.92998H21.1932C21.3219 9.64377 21.3918 10.3881 21.3918 11.1619C21.3918 14.4864 20.2021 17.2848 18.1372 19.1839C16.332 20.8515 13.861 21.8284 10.9142 21.8284C9.48075 21.8289 8.06125 21.547 6.73683 20.9987C5.4124 20.4504 4.209 19.6465 3.19541 18.6329C2.18182 17.6194 1.37791 16.416 0.829625 15.0915C0.281339 13.7671 -0.000572843 12.3476 8.73914e-07 10.9142C8.73914e-07 9.15263 0.421288 7.48713 1.16127 6.01371Z" fill="black"/>
</svg>
