<svg width="36" height="36" viewBox="0 0 36 36" fill="none" xmlns="http://www.w3.org/2000/svg">
<path d="M0 9.98435C0 4.47015 4.47014 0 9.98434 0H25.9593C31.4735 0 35.9436 4.47014 35.9436 9.98434V25.9593C35.9436 31.4735 31.4735 35.9436 25.9593 35.9436H9.98435C4.47015 35.9436 0 31.4735 0 25.9593V9.98435Z" fill="#FFF4E5"/>
<path d="M12.2676 22.9717L15.1071 14.0936H17.2038L20.0434 22.9717H18.1743L16.9163 18.3469C16.7805 17.8837 16.6487 17.4044 16.5209 16.9092C16.4011 16.406 16.2733 15.9187 16.1375 15.4475H16.0896C15.9778 15.9267 15.854 16.414 15.7182 16.9092C15.5904 17.4044 15.4626 17.8837 15.3348 18.3469L14.0648 22.9717H12.2676ZM14.0288 20.6952V19.3174H18.2462V20.6952H14.0288ZM20.9375 22.9717V16.2622H22.6987V22.9717H20.9375ZM21.8241 15.1719C21.5126 15.1719 21.265 15.088 21.0813 14.9203C20.8976 14.7446 20.8057 14.5089 20.8057 14.2134C20.8057 13.9259 20.8976 13.6942 21.0813 13.5185C21.265 13.3428 21.5126 13.2549 21.8241 13.2549C22.1196 13.2549 22.3633 13.3428 22.555 13.5185C22.7467 13.6942 22.8425 13.9259 22.8425 14.2134C22.8425 14.5089 22.7467 14.7446 22.555 14.9203C22.3633 15.088 22.1196 15.1719 21.8241 15.1719Z" fill="#FF9500"/>
</svg>
