<svg width="27" height="27" viewBox="0 0 27 27" fill="none" xmlns="http://www.w3.org/2000/svg">
<path d="M13.0979 2.72168C19.6095 2.72168 24.8852 6.88407 24.8852 12.0165C24.8852 17.1489 19.6095 21.3113 13.0979 21.3113C12.3816 21.3113 11.6817 21.2621 11.0023 21.1639C10.3229 21.6428 6.39383 24.4013 6.02138 24.4545C6.02138 24.4545 5.86995 24.5118 5.73898 24.4382C5.608 24.3645 5.63256 24.1639 5.63256 24.1639C5.67349 23.8938 6.65577 20.5132 6.83585 19.887C3.51658 18.2457 1.31055 15.3316 1.31055 12.0124C1.31055 6.87998 6.58619 2.72168 13.0979 2.72168ZM4.83856 9.23744C4.4702 9.23744 4.17143 9.53622 4.17143 9.90457C4.17143 10.2729 4.4702 10.5717 4.83856 10.5717H5.8986V14.6113C5.8986 14.9715 6.20556 15.2621 6.578 15.2621C6.95045 15.2621 7.25741 14.9715 7.25741 14.6113V10.5717H8.31745C8.6858 10.5717 8.98458 10.2729 8.98458 9.90457C8.98458 9.53622 8.6858 9.23744 8.31745 9.23744H4.83446H4.83856ZM10.6012 9.23744C10.1592 9.24563 9.81133 9.58124 9.69673 9.90867L8.07188 14.1898C7.86724 14.8323 8.04732 15.0697 8.2315 15.1557C8.36247 15.217 8.51391 15.2498 8.66534 15.2498C8.94774 15.2498 9.16466 15.1352 9.23015 14.951L9.56576 14.067H11.6408L11.9764 14.9469C12.0419 15.1311 12.2588 15.2457 12.5412 15.2457C12.6927 15.2457 12.84 15.213 12.9751 15.1516C13.1633 15.0656 13.3434 14.8282 13.1347 14.1857L11.5098 9.90867C11.3952 9.58124 11.0474 9.24563 10.6012 9.23744ZM18.0051 9.23744C17.6286 9.23744 17.3257 9.54441 17.3257 9.91685V14.5704C17.3257 14.9469 17.6327 15.2498 18.0051 15.2498C18.3776 15.2498 18.6846 14.9428 18.6846 14.5704V13.0888L18.9219 12.8514L20.514 14.9633C20.645 15.1352 20.8415 15.2334 21.0584 15.2334C21.2057 15.2334 21.349 15.1884 21.4677 15.0984C21.6109 14.9879 21.7051 14.8282 21.7296 14.6481C21.7542 14.4681 21.7091 14.288 21.5986 14.1447L19.9247 11.9264L21.4759 10.3793C21.5823 10.2729 21.6355 10.1256 21.6273 9.96597C21.6191 9.80635 21.5454 9.65491 21.4267 9.53622C21.2999 9.40934 21.128 9.33567 20.9602 9.33567C20.8128 9.33567 20.6819 9.38888 20.5836 9.48711L18.6886 11.3862V9.92504C18.6886 9.5485 18.3817 9.24563 18.0092 9.24563L18.0051 9.23744ZM14.2684 9.23744C13.8878 9.23744 13.5767 9.54441 13.5767 9.91685V14.5335C13.5767 14.8773 13.8673 15.1557 14.2275 15.1598H16.4089C16.7691 15.1598 17.0597 14.8773 17.0597 14.5335C17.0597 14.1898 16.765 13.9114 16.4089 13.9114H14.9642V9.91685C14.9642 9.54031 14.6531 9.23744 14.2684 9.23744ZM11.2807 12.8637H9.92183L10.6012 10.936L11.2807 12.8637Z" fill="black"/>
</svg>
