<svg width="15" height="15" viewBox="0 0 15 15" fill="none" xmlns="http://www.w3.org/2000/svg">
<g clip-path="url(#clip0_71_18269)">
<path d="M9.09731 3.5655L8.49096 6.06364H12.0259C12.2142 6.06364 12.3999 6.10747 12.5683 6.19166C12.7367 6.27586 12.8831 6.3981 12.9961 6.54871C13.1091 6.69932 13.1854 6.87416 13.2191 7.05939C13.2527 7.24462 13.2428 7.43514 13.1901 7.61588L11.7773 12.4666C11.7039 12.7185 11.5507 12.9398 11.3408 13.0972C11.1309 13.2547 10.8756 13.3398 10.6132 13.3398H2.42753C2.10591 13.3398 1.79745 13.212 1.57003 12.9846C1.34261 12.7571 1.21484 12.4487 1.21484 12.1271V7.27632C1.21484 6.9547 1.34261 6.64625 1.57003 6.41882C1.79745 6.1914 2.10591 6.06364 2.42753 6.06364H4.10104C4.32665 6.06352 4.54775 6.00046 4.73949 5.88156C4.93123 5.76267 5.086 5.59264 5.18639 5.3906L7.27828 1.21289C7.56421 1.21643 7.84565 1.28454 8.10157 1.41213C8.35749 1.53972 8.58126 1.7235 8.75618 1.94972C8.9311 2.17594 9.05263 2.43877 9.1117 2.71856C9.17077 2.99836 9.16585 3.28788 9.09731 3.5655Z" fill="#7FFFD4" stroke="#666666" stroke-width="1.21269" stroke-linecap="round" stroke-linejoin="round"/>
<path d="M4.24414 6.06445V13.3406" stroke="#666666" stroke-width="1.21269" stroke-linecap="round" stroke-linejoin="round"/>
</g>
<defs>
<clipPath id="clip0_71_18269">
<rect width="14.5522" height="14.5522" fill="white"/>
</clipPath>
</defs>
</svg>
