<svg width="18" height="18" viewBox="0 0 18 18" fill="none" xmlns="http://www.w3.org/2000/svg">
<path d="M7.27539 9.45929C7.58787 9.87704 7.98653 10.2227 8.44434 10.4728C8.90214 10.7229 9.40839 10.8717 9.92874 10.9089C10.4491 10.9462 10.9714 10.8711 11.4601 10.6888C11.9489 10.5065 12.3928 10.2212 12.7616 9.85221L14.9444 7.66937C15.6071 6.98322 15.9738 6.06424 15.9655 5.11035C15.9572 4.15647 15.5746 3.244 14.9001 2.56947C14.2256 1.89494 13.3131 1.51233 12.3592 1.50404C11.4053 1.49575 10.4864 1.86245 9.8002 2.52515L8.54871 3.76937" stroke="#666666" stroke-width="1.45522" stroke-linecap="round" stroke-linejoin="round"/>
<path d="M10.1844 8.00386C9.87194 7.58612 9.47328 7.24046 9.01547 6.99034C8.55766 6.74022 8.05142 6.59148 7.53107 6.55422C7.01072 6.51695 6.48845 6.59203 5.99967 6.77436C5.51089 6.95669 5.06704 7.242 4.69822 7.61095L2.51539 9.79379C1.85269 10.4799 1.48599 11.3989 1.49428 12.3528C1.50257 13.3067 1.88518 14.2192 2.5597 14.8937C3.23423 15.5682 4.1467 15.9508 5.10059 15.9591C6.05448 15.9674 6.97346 15.6007 7.6596 14.938L8.90382 13.6938" stroke="#666666" stroke-width="1.45522" stroke-linecap="round" stroke-linejoin="round"/>
</svg>
