<svg width="26" height="27" viewBox="0 0 26 27" fill="none" xmlns="http://www.w3.org/2000/svg">
<path d="M6.5 23.625V21.375C6.5 20.1815 6.95655 19.0369 7.7692 18.193C8.58186 17.3491 9.68406 16.875 10.8333 16.875H15.1667C16.3159 16.875 17.4181 17.3491 18.2308 18.193C19.0435 19.0369 19.5 20.1815 19.5 21.375V23.625M8.66667 7.875C8.66667 9.06847 9.12321 10.2131 9.93587 11.057C10.7485 11.9009 11.8507 12.375 13 12.375C14.1493 12.375 15.2515 11.9009 16.0641 11.057C16.8768 10.2131 17.3333 9.06847 17.3333 7.875C17.3333 6.68153 16.8768 5.53693 16.0641 4.69302C15.2515 3.84911 14.1493 3.375 13 3.375C11.8507 3.375 10.7485 3.84911 9.93587 4.69302C9.12321 5.53693 8.66667 6.68153 8.66667 7.875Z" stroke="#BBBBBB" stroke-width="2" stroke-linecap="round" stroke-linejoin="round"/>
</svg>
