<svg width="26" height="26" viewBox="0 0 26 26" fill="none" xmlns="http://www.w3.org/2000/svg">
<path d="M9.75 22.75V16.25C9.75 15.6754 9.97827 15.1243 10.3846 14.7179C10.7909 14.3116 11.342 14.0833 11.9167 14.0833H14.0833C14.658 14.0833 15.2091 14.3116 15.6154 14.7179C16.0217 15.1243 16.25 15.6754 16.25 16.25V22.75M5.41667 13H3.25L13 3.25L22.75 13H20.5833V20.5833C20.5833 21.158 20.3551 21.7091 19.9487 22.1154C19.5424 22.5217 18.9913 22.75 18.4167 22.75H7.58333C7.0087 22.75 6.4576 22.5217 6.05127 22.1154C5.64494 21.7091 5.41667 21.158 5.41667 20.5833V13Z" stroke="#BBBBBB" stroke-width="2" stroke-linecap="round" stroke-linejoin="round"/>
</svg>
