<svg width="27" height="27" viewBox="0 0 27 27" fill="none" xmlns="http://www.w3.org/2000/svg">
<path d="M17.4638 21.8281V4.36545C17.4638 3.78653 17.2338 3.23132 16.8244 2.82195C16.4151 2.41259 15.8599 2.18262 15.2809 2.18262H10.9153C10.3363 2.18262 9.78112 2.41259 9.37176 2.82195C8.9624 3.23132 8.73242 3.78653 8.73242 4.36545V21.8281" stroke="#202020" stroke-width="2.72854" stroke-linecap="round" stroke-linejoin="round"/>
<path d="M21.8291 6.54785H4.36643C3.16088 6.54785 2.18359 7.52514 2.18359 8.73069V19.6449C2.18359 20.8504 3.16088 21.8277 4.36643 21.8277H21.8291C23.0347 21.8277 24.012 20.8504 24.012 19.6449V8.73069C24.012 7.52514 23.0347 6.54785 21.8291 6.54785Z" stroke="#202020" stroke-width="2.72854" stroke-linecap="round" stroke-linejoin="round"/>
</svg>
