<svg width="22" height="22" viewBox="0 0 22 22" fill="none" xmlns="http://www.w3.org/2000/svg">
<path d="M9.33984 19.0996C9.4995 19.3761 9.72913 19.6057 10.0056 19.7654C10.2822 19.925 10.5958 20.009 10.9151 20.009C11.2344 20.009 11.5481 19.925 11.8246 19.7654C12.1011 19.6057 12.3307 19.3761 12.4904 19.0996" stroke="#202020" stroke-width="1.81903" stroke-linecap="round" stroke-linejoin="round"/>
<path d="M2.96614 13.9386C2.84733 14.0688 2.76892 14.2307 2.74045 14.4047C2.71199 14.5787 2.73469 14.7572 2.8058 14.9185C2.87691 15.0798 2.99337 15.2169 3.141 15.3133C3.28864 15.4096 3.46108 15.461 3.63737 15.4611H18.1896C18.3659 15.4611 18.5384 15.41 18.6861 15.3138C18.8338 15.2177 18.9504 15.0807 19.0217 14.9195C19.093 14.7583 19.1159 14.5798 19.0877 14.4059C19.0595 14.2319 18.9813 14.0698 18.8626 13.9395C17.653 12.6925 16.3706 11.3674 16.3706 7.27545C16.3706 5.82814 15.7956 4.44011 14.7722 3.4167C13.7488 2.3933 12.3608 1.81836 10.9135 1.81836C9.46618 1.81836 8.07814 2.3933 7.05474 3.4167C6.03134 4.44011 5.4564 5.82814 5.4564 7.27545C5.4564 11.3674 4.17307 12.6925 2.96614 13.9386Z" stroke="#202020" stroke-width="1.81903" stroke-linecap="round" stroke-linejoin="round"/>
</svg>
