<svg width="36" height="36" viewBox="0 0 36 36" fill="none" xmlns="http://www.w3.org/2000/svg">
<path d="M0 9.98435C0 4.47015 4.47014 0 9.98434 0H25.9593C31.4735 0 35.9436 4.47014 35.9436 9.98434V25.9593C35.9436 31.4735 31.4735 35.9436 25.9593 35.9436H9.98435C4.47015 35.9436 0 31.4735 0 25.9593V9.98435Z" fill="#E5F3FF"/>
<path d="M11.5981 22.9717V14.0936H14.6773C15.3083 14.0936 15.8754 14.1775 16.3786 14.3452C16.8818 14.505 17.2812 14.7845 17.5767 15.1839C17.8723 15.5753 18.02 16.1104 18.02 16.7894C18.02 17.4443 17.8723 17.9835 17.5767 18.4068C17.2812 18.8222 16.8818 19.1297 16.3786 19.3294C15.8754 19.5211 15.3083 19.6169 14.6773 19.6169H13.3713V22.9717H11.5981ZM13.3713 18.2151H14.5215C15.0966 18.2151 15.5319 18.0953 15.8275 17.8557C16.131 17.6161 16.2827 17.2606 16.2827 16.7894C16.2827 16.3101 16.131 15.9786 15.8275 15.7949C15.5319 15.6032 15.0966 15.5074 14.5215 15.5074H13.3713V18.2151ZM16.4145 22.9717L14.3538 19.1617L15.5998 18.0594L18.4034 22.9717H16.4145ZM22.3457 23.1394C21.7227 23.1394 21.1596 22.9996 20.6564 22.7201C20.1531 22.4405 19.7498 22.0371 19.4463 21.51C19.1507 20.9828 19.0029 20.3518 19.0029 19.6169C19.0029 19.0738 19.0868 18.5866 19.2546 18.1552C19.4303 17.7239 19.6659 17.3565 19.9614 17.053C20.265 16.7414 20.6004 16.5058 20.9679 16.3461C21.3433 16.1783 21.7307 16.0945 22.13 16.0945C22.7451 16.0945 23.2603 16.2342 23.6756 16.5138C24.091 16.7854 24.4025 17.1648 24.6102 17.652C24.8258 18.1313 24.9336 18.6824 24.9336 19.3054C24.9336 19.4652 24.9257 19.6209 24.9097 19.7727C24.8937 19.9165 24.8737 20.0323 24.8498 20.1202H20.7163C20.7642 20.4796 20.872 20.7831 21.0398 21.0307C21.2075 21.2783 21.4232 21.466 21.6867 21.5938C21.9503 21.7137 22.2499 21.7736 22.5853 21.7736C22.8569 21.7736 23.1125 21.7376 23.3521 21.6657C23.5918 21.5859 23.8354 21.47 24.083 21.3183L24.682 22.3966C24.3546 22.6202 23.9871 22.7999 23.5798 22.9357C23.1724 23.0715 22.7611 23.1394 22.3457 23.1394ZM20.6803 18.934H23.424C23.424 18.4867 23.3202 18.1313 23.1125 17.8677C22.9128 17.5961 22.5933 17.4603 22.154 17.4603C21.9224 17.4603 21.7027 17.5162 21.495 17.6281C21.2874 17.7319 21.1116 17.8956 20.9679 18.1193C20.8241 18.3349 20.7282 18.6065 20.6803 18.934Z" fill="#0088CC"/>
</svg>
