<svg width="21" height="21" viewBox="0 0 21 21" fill="none" xmlns="http://www.w3.org/2000/svg">
<path d="M15.281 6.79153C16.6875 6.79153 17.8277 5.65136 17.8277 4.24488C17.8277 2.83841 16.6875 1.69824 15.281 1.69824C13.8745 1.69824 12.7344 2.83841 12.7344 4.24488C12.7344 5.65136 13.8745 6.79153 15.281 6.79153Z" stroke="white" stroke-width="2" stroke-linecap="round" stroke-linejoin="round"/>
<path d="M5.09352 12.7339C6.49999 12.7339 7.64016 11.5937 7.64016 10.1873C7.64016 8.7808 6.49999 7.64062 5.09352 7.64062C3.68705 7.64062 2.54688 8.7808 2.54688 10.1873C2.54688 11.5937 3.68705 12.7339 5.09352 12.7339Z" stroke="white" stroke-width="2" stroke-linecap="round" stroke-linejoin="round"/>
<path d="M15.281 18.6753C16.6875 18.6753 17.8277 17.5351 17.8277 16.1287C17.8277 14.7222 16.6875 13.582 15.281 13.582C13.8745 13.582 12.7344 14.7222 12.7344 16.1287C12.7344 17.5351 13.8745 18.6753 15.281 18.6753Z" stroke="white" stroke-width="2" stroke-linecap="round" stroke-linejoin="round"/>
<path d="M7.29492 11.4688L13.0928 14.8473" stroke="white" stroke-width="2" stroke-linecap="round" stroke-linejoin="round"/>
<path d="M13.0843 5.52734L7.29492 8.90589" stroke="white" stroke-width="2" stroke-linecap="round" stroke-linejoin="round"/>
</svg>
