<svg width="390" height="47" viewBox="0 0 390 47" fill="none" xmlns="http://www.w3.org/2000/svg">
<path d="M109 0H281C277.686 0 275 2.68629 275 6V6.71329C275 9.20832 275 10.4558 274.902 11.5071C273.889 22.3234 265.323 30.8887 254.507 31.9016C253.456 32 252.208 32 249.713 32H140.287C137.792 32 136.544 32 135.493 31.9016C124.677 30.8887 116.111 22.3234 115.098 11.5071C115 10.4558 115 9.20832 115 6.71329V6C115 2.68629 112.314 0 109 0Z" fill="black"/>
<path d="M42.4878 19.4453C44.8941 19.4453 46.9878 21.1562 46.9878 25.2188V25.2344C46.9878 29.0312 45.2769 31.2812 42.4409 31.2812C40.3706 31.2812 38.8237 30.0547 38.4644 28.3281L38.4487 28.2422H40.4331L40.4566 28.3203C40.7534 29.1094 41.4487 29.625 42.4409 29.625C44.23 29.625 44.9878 27.875 45.0737 25.7188C45.0737 25.6328 45.0816 25.5469 45.0816 25.4609H44.9253C44.5112 26.3516 43.5269 27.1406 41.98 27.1406C39.8159 27.1406 38.3003 25.5625 38.3003 23.4219V23.4062C38.3003 21.1172 40.0425 19.4453 42.4878 19.4453ZM42.48 25.5938C43.7534 25.5938 44.73 24.6719 44.73 23.3984V23.3828C44.73 22.0938 43.7534 21.0859 42.5034 21.0859C41.2612 21.0859 40.2691 22.0781 40.2691 23.3359V23.3516C40.2691 24.6562 41.1987 25.5938 42.48 25.5938ZM50.2147 23.6953C49.5037 23.6953 48.9725 23.1484 48.9725 22.4609C48.9725 21.7656 49.5037 21.2266 50.2147 21.2266C50.9334 21.2266 51.4569 21.7656 51.4569 22.4609C51.4569 23.1484 50.9334 23.6953 50.2147 23.6953ZM50.2147 29.4922C49.5037 29.4922 48.9725 28.9531 48.9725 28.2578C48.9725 27.5625 49.5037 27.0234 50.2147 27.0234C50.9334 27.0234 51.4569 27.5625 51.4569 28.2578C51.4569 28.9531 50.9334 29.4922 50.2147 29.4922ZM58.9103 31V28.8359H53.3947V27.1875C54.8556 24.6484 56.4572 22.0547 57.9884 19.7266H60.84V27.1719H62.3556V28.8359H60.84V31H58.9103ZM55.2697 27.2188H58.9416V21.3359H58.8244C57.6681 23.1016 56.3634 25.1875 55.2697 27.1016V27.2188ZM66.7231 31V21.7109H66.5903L63.7856 23.6953V21.7969L66.7309 19.7266H68.7388V31H66.7231Z" fill="black"/>
<path opacity="0.35" d="M340 19.5H357C358.933 19.5 360.5 21.067 360.5 23V28C360.5 29.933 358.933 31.5 357 31.5H340C338.067 31.5 336.5 29.933 336.5 28V23C336.5 21.067 338.067 19.5 340 19.5Z" stroke="black"/>
<path opacity="0.4" d="M362 24V28.2203C362.849 27.8629 363.401 27.0314 363.401 26.1102C363.401 25.1889 362.849 24.3574 362 24" fill="black"/>
<path d="M338 23C338 21.8954 338.895 21 340 21H357C358.105 21 359 21.8954 359 23V28C359 29.1046 358.105 30 357 30H340C338.895 30 338 29.1046 338 28V23Z" fill="black"/>
<path d="M318.115 28.9187C319.535 27.6932 321.614 27.6933 323.034 28.9187C323.106 28.9847 323.147 29.0783 323.149 29.1766C323.151 29.2748 323.114 29.3694 323.045 29.4383L320.821 31.7283C320.756 31.7956 320.668 31.8337 320.575 31.8338C320.482 31.8338 320.393 31.7956 320.328 31.7283L318.104 29.4383C318.036 29.3694 317.998 29.2748 318 29.1766C318.002 29.0783 318.044 28.9846 318.115 28.9187ZM315.109 26.1785C318.168 23.2739 322.906 23.2739 325.965 26.1785C326.034 26.2466 326.073 26.3403 326.074 26.4383C326.075 26.5362 326.037 26.6306 325.97 26.7L324.685 28.0252C324.552 28.1605 324.338 28.1638 324.202 28.032C323.198 27.1036 321.891 26.5896 320.536 26.5896C319.182 26.5902 317.876 27.1041 316.872 28.032C316.736 28.1638 316.522 28.1605 316.39 28.0252L315.104 26.7C315.037 26.6306 314.999 26.5362 315 26.4383C315.001 26.3403 315.04 26.2466 315.109 26.1785ZM312.107 23.4422C316.799 18.8526 324.201 18.8526 328.893 23.4422C328.96 23.5104 328.999 23.6037 329 23.701C329 23.7981 328.963 23.8918 328.896 23.9607L327.609 25.2859C327.477 25.4219 327.262 25.4236 327.127 25.2898C325.339 23.5551 322.967 22.5878 320.5 22.5877C318.033 22.5878 315.661 23.5551 313.873 25.2898C313.739 25.4237 313.523 25.4221 313.391 25.2859L312.104 23.9607C312.037 23.8918 312 23.798 312 23.701C312.001 23.6037 312.039 23.5103 312.107 23.4422Z" fill="black"/>
<path d="M296 23C296 22.4477 296.448 22 297 22H298C298.552 22 299 22.4477 299 23V31C299 31.5523 298.552 32 298 32H297C296.448 32 296 31.5523 296 31V23Z" fill="black"/>
<path d="M301 21C301 20.4477 301.448 20 302 20H303C303.552 20 304 20.4477 304 21V31C304 31.5523 303.552 32 303 32H302C301.448 32 301 31.5523 301 31V21Z" fill="black"/>
<path d="M291 26.5C291 25.9477 291.448 25.5 292 25.5H293C293.552 25.5 294 25.9477 294 26.5V31C294 31.5523 293.552 32 293 32H292C291.448 32 291 31.5523 291 31V26.5Z" fill="black"/>
<path d="M286 29C286 28.4477 286.448 28 287 28H288C288.552 28 289 28.4477 289 29V31C289 31.5523 288.552 32 288 32H287C286.448 32 286 31.5523 286 31V29Z" fill="black"/>
</svg>
