<svg width="262" height="309" viewBox="0 0 262 309" fill="none" xmlns="http://www.w3.org/2000/svg">
<path d="M47.1364 44.2783L50.0711 53.616H60.476L52.4722 59.6188L55.407 68.9565L47.1364 62.9537L38.8659 68.9565L41.8006 59.6188L33.7969 53.616H44.2017L47.1364 44.2783Z" fill="#F59E0B"/>
<g clip-path="url(#clip0_92_840)">
<path d="M214.782 72.5186C218.016 75.7524 219.633 78.582 219.633 81.0074C219.633 82.2939 219.122 83.5277 218.212 84.4374C217.303 85.347 216.069 85.8581 214.782 85.8581C213.496 85.8581 212.262 85.347 211.352 84.4374C210.443 83.5277 209.932 82.2939 209.932 81.0074C209.932 78.582 211.549 75.7524 214.782 72.5186Z" fill="#7FFFD4"/>
</g>
<g clip-path="url(#clip1_92_840)">
<path d="M26.1953 121.51L35.6542 130.969L26.1953 140.428L16.7363 130.969L26.1953 121.51Z" fill="#7FFFD4"/>
</g>
<g clip-path="url(#clip2_92_840)">
<path d="M230.495 128.924C234.375 132.804 236.316 136.2 236.316 139.11C236.316 140.654 235.702 142.135 234.611 143.226C233.519 144.318 232.039 144.931 230.495 144.931C228.951 144.931 227.47 144.318 226.379 143.226C225.287 142.135 224.674 140.654 224.674 139.11C224.674 136.2 226.614 132.804 230.495 128.924Z" fill="#26C99A"/>
</g>
<path d="M204.301 190.581L206.169 196.523H212.79L207.697 200.343L209.564 206.285L204.301 202.465L199.038 206.285L200.906 200.343L195.812 196.523H202.434L204.301 190.581Z" fill="#F59E0B"/>
<g clip-path="url(#clip3_92_840)">
<path d="M50.2065 191.634H28.3781C27.1726 191.634 26.1953 192.611 26.1953 193.817C26.1953 195.022 27.1726 195.999 28.3781 195.999H50.2065C51.4121 195.999 52.3893 195.022 52.3893 193.817C52.3893 192.611 51.4121 191.634 50.2065 191.634Z" fill="#7FFFD4"/>
</g>
<path d="M46.5684 130.969C46.5684 84.3549 84.3569 46.5664 130.971 46.5664V46.5664C177.586 46.5664 215.374 84.3549 215.374 130.969V130.969C215.374 177.584 177.586 215.372 130.971 215.372V215.372C84.3569 215.372 46.5684 177.584 46.5684 130.969V130.969Z" fill="#7FFFD4" fill-opacity="0.18"/>
<g filter="url(#filter0_d_92_840)">
<path d="M61.1191 130.969C61.1191 92.3914 92.3924 61.1182 130.97 61.1182V61.1182C169.547 61.1182 200.821 92.3914 200.821 130.969V130.969C200.821 169.546 169.547 200.82 130.97 200.82V200.82C92.3924 200.82 61.1191 169.546 61.1191 130.969V130.969Z" fill="#7FFFD4" shape-rendering="crispEdges"/>
<path d="M113.992 130.97L126.119 143.097L147.947 121.269" stroke="#202020" stroke-width="6.79104" stroke-linecap="round" stroke-linejoin="round"/>
</g>
<defs>
<filter id="filter0_d_92_840" x="14.552" y="26.1928" width="232.836" height="232.836" filterUnits="userSpaceOnUse" color-interpolation-filters="sRGB">
<feFlood flood-opacity="0" result="BackgroundImageFix"/>
<feColorMatrix in="SourceAlpha" type="matrix" values="0 0 0 0 0 0 0 0 0 0 0 0 0 0 0 0 0 0 127 0" result="hardAlpha"/>
<feOffset dy="11.6418"/>
<feGaussianBlur stdDeviation="23.2836"/>
<feComposite in2="hardAlpha" operator="out"/>
<feColorMatrix type="matrix" values="0 0 0 0 0.498039 0 0 0 0 1 0 0 0 0 0.831373 0 0 0 0.45 0"/>
<feBlend mode="normal" in2="BackgroundImageFix" result="effect1_dropShadow_92_840"/>
<feBlend mode="normal" in="SourceGraphic" in2="effect1_dropShadow_92_840" result="shape"/>
</filter>
<clipPath id="clip0_92_840">
<rect width="14.5522" height="14.5522" fill="white" transform="translate(207.506 71.3047)"/>
</clipPath>
<clipPath id="clip1_92_840">
<rect width="18.9179" height="18.9179" fill="white" transform="translate(16.7363 121.51)"/>
</clipPath>
<clipPath id="clip2_92_840">
<rect width="17.4627" height="17.4627" fill="white" transform="translate(221.764 127.468)"/>
</clipPath>
<clipPath id="clip3_92_840">
<rect width="26.194" height="7.27612" fill="white" transform="translate(26.1953 190.179)"/>
</clipPath>
</defs>
</svg>
