<svg width="18" height="18" viewBox="0 0 18 18" fill="none" xmlns="http://www.w3.org/2000/svg">
<path d="M11.6416 15.2797V13.8245C11.6416 13.0526 11.335 12.3123 10.7892 11.7665C10.2434 11.2207 9.5031 10.9141 8.7312 10.9141H4.36553C3.59363 10.9141 2.85334 11.2207 2.30753 11.7665C1.76171 12.3123 1.45508 13.0526 1.45508 13.8245V15.2797" stroke="#5FBF9F" stroke-width="1.45522" stroke-linecap="round" stroke-linejoin="round"/>
<path d="M6.54717 8.00351C8.15456 8.00351 9.45761 6.70046 9.45761 5.09307C9.45761 3.48567 8.15456 2.18262 6.54717 2.18262C4.93977 2.18262 3.63672 3.48567 3.63672 5.09307C3.63672 6.70046 4.93977 8.00351 6.54717 8.00351Z" stroke="#5FBF9F" stroke-width="1.45522" stroke-linecap="round" stroke-linejoin="round"/>
<path d="M16.0071 15.2799V13.8246C16.0066 13.1798 15.7919 12.5533 15.3969 12.0437C15.0018 11.534 14.4486 11.17 13.8242 11.0088" stroke="#5FBF9F" stroke-width="1.45522" stroke-linecap="round" stroke-linejoin="round"/>
<path d="M11.6406 2.91016C12.2667 3.07045 12.8216 3.43455 13.2178 3.94505C13.6141 4.45555 13.8292 5.08341 13.8292 5.72965C13.8292 6.3759 13.6141 7.00376 13.2178 7.51426C12.8216 8.02476 12.2667 8.38885 11.6406 8.54915" stroke="#5FBF9F" stroke-width="1.45522" stroke-linecap="round" stroke-linejoin="round"/>
</svg>
